HIERARCHY
ROOT Hips
{
	OFFSET 0.000000 0.000000 0.000000
	CHANNELS 6 Xposition Yposition Zposition Xrotation Yrotation Zrotation
	JOINT LeftUpLeg_virtual
	{
		OFFSET 0.000000 0.000000 0.000000
		CHANNELS 3 Xrotation Yrotation Zrotation
		JOINT LeftUpLeg
		{
			OFFSET 10.205400 -3.823500 0.155100
			CHANNELS 3 Xrotation Yrotation Zrotation
			JOINT LeftLeg
			{
				OFFSET 0.708757 -12.982077 0.567790
				CHANNELS 3 Xrotation Yrotation Zrotation
				JOINT LeftFoot
				{
					OFFSET -0.708756 -10.717838 -2.184338
					CHANNELS 3 Xrotation Yrotation Zrotation
					JOINT LeftToeBase
					{
						OFFSET 0.108149 -7.191104 7.560241
						CHANNELS 3 Xrotation Yrotation Zrotation
						JOINT LeftToe_End
						{
							OFFSET 0.070230 0.081724 4.490308
							CHANNELS 3 Xrotation Yrotation Zrotation
							End Site
							{
								OFFSET 0 0 0
							}
						}
					}
				}
			}
		}
	}
	JOINT RightUpLeg_virtual
	{
		OFFSET 0.000000 0.000000 0.000000
		CHANNELS 3 Xrotation Yrotation Zrotation
		JOINT RightUpLeg
		{
			OFFSET -10.205400 -3.823500 0.005500
			CHANNELS 3 Xrotation Yrotation Zrotation
			JOINT RightLeg
			{
				OFFSET -0.708756 -12.982134 0.610632
				CHANNELS 3 Xrotation Yrotation Zrotation
				JOINT RightFoot
				{
					OFFSET 0.708754 -10.717769 -1.945823
					CHANNELS 3 Xrotation Yrotation Zrotation
					JOINT RightToeBase
					{
						OFFSET -0.108140 -7.191069 7.372968
						CHANNELS 3 Xrotation Yrotation Zrotation
						JOINT RightToe_End
						{
							OFFSET -0.070227 0.081735 4.479403
							CHANNELS 3 Xrotation Yrotation Zrotation
							End Site
							{
								OFFSET 0 0 0
							}
						}
					}
				}
			}
		}
	}
	JOINT Spine_virtual
	{
		OFFSET 0.000000 0.000000 0.000000
		CHANNELS 3 Xrotation Yrotation Zrotation
		JOINT Spine
		{
			OFFSET 0.000000 6.876099 0.125700
			CHANNELS 3 Xrotation Yrotation Zrotation
			JOINT Spine1
			{
				OFFSET 0.000000 5.730043 0.104720
				CHANNELS 3 Xrotation Yrotation Zrotation
				JOINT Spine1_split
				{
					OFFSET 0.000000 5.730043 0.104720
					CHANNELS 3 Xrotation Yrotation Zrotation
					JOINT Spine2
					{
						OFFSET 0.000000 5.730043 0.104720
						CHANNELS 3 Xrotation Yrotation Zrotation
						JOINT Neck_virtual
						{
							OFFSET 0.000000 0.000000 0.000000
							CHANNELS 3 Xrotation Yrotation Zrotation
							JOINT Neck
							{
								OFFSET 0.000000 10.314075 0.188496
								CHANNELS 3 Xrotation Yrotation Zrotation
								JOINT Head
								{
									OFFSET 0.000000 7.643700 -2.377400
									CHANNELS 3 Xrotation Yrotation Zrotation
									JOINT HeadTop_End
									{
										OFFSET 0.000000 43.788605 -13.619600
										CHANNELS 3 Xrotation Yrotation Zrotation
										End Site
										{
											OFFSET 0 0 0
										}
									}
								}
							}
						}
						JOINT LeftShoulder_virtual
						{
							OFFSET 0.000000 0.000000 0.000000
							CHANNELS 3 Xrotation Yrotation Zrotation
							JOINT LeftShoulder
							{
								OFFSET 2.196100 4.412489 0.087492
								CHANNELS 3 Xrotation Yrotation Zrotation
								JOINT LeftShoulder_split
								{
									OFFSET 2.196100 4.412489 0.087492
									CHANNELS 3 Xrotation Yrotation Zrotation
									JOINT LeftArm
									{
										OFFSET 8.771219 -2.981674 -0.026999
										CHANNELS 3 Xrotation Yrotation Zrotation
										JOINT LeftForeArm
										{
											OFFSET 8.512804 0.000000 -0.000000
											CHANNELS 3 Xrotation Yrotation Zrotation
											JOINT LeftHand
											{
												OFFSET 18.484802 0.000000 -0.000000
												CHANNELS 3 Xrotation Yrotation Zrotation
												End Site
												{
													OFFSET 0 0 0
												}
											}
										}
									}
								}
							}
						}
						JOINT RightShoulder_virtual
						{
							OFFSET 0.000000 0.000000 0.000000
							CHANNELS 3 Xrotation Yrotation Zrotation
							JOINT RightShoulder
							{
								OFFSET -2.196100 4.412496 0.070690
								CHANNELS 3 Xrotation Yrotation Zrotation
								JOINT RightShoulder_split
								{
									OFFSET -2.196100 4.412496 0.070690
									CHANNELS 3 Xrotation Yrotation Zrotation
									JOINT RightArm
									{
										OFFSET -8.771282 -2.981682 -0.094208
										CHANNELS 3 Xrotation Yrotation Zrotation
										JOINT RightForeArm
										{
											OFFSET -8.494598 0.000000 0.000000
											CHANNELS 3 Xrotation Yrotation Zrotation
											JOINT RightHand
											{
												OFFSET -18.483803 0.000000 0.000001
												CHANNELS 3 Xrotation Yrotation Zrotation
												End Site
												{
													OFFSET 0 0 0
												}
											}
										}
									}
								}
							}
						}
					}
				}
			}
		}
	}
}
MOTION
Frames: 7
Frame Time: 0.03333333
-2.197109 37.383007 75.100754 0.000000 0.000000 0.000000 21.081913 6.890232 -0.013993 -12.776566 10.089006 13.688525 49.668111 12.606221 1.471735 12.198758 0.190660 0.467581 7.525256 1.756209 -4.446043 0.000000 0.000000 0.000000 20.189489 11.566098 -0.495407 -57.445695 -17.296078 -10.654481 38.957480 -0.850162 -13.010655 44.414350 3.894344 0.060330 8.616564 0.369382 0.339931 0.000000 0.000000 0.000000 19.940678 4.554565 1.680972 0.279424 -0.024402 1.688204 -3.944430 -0.250229 0.162285 0.513127 -1.619369 0.122296 0.000000 0.000000 0.000000 -1.552425 -0.049932 -0.730325 -10.677393 0.352374 -7.495033 -25.753460 7.448129 2.253490 0.000000 0.000000 0.000000 -4.680367 0.176417 0.100439 10.533870 -4.776971 30.927674 5.040150 6.656088 -0.672161 -50.367553 -16.966576 12.201487 -40.159115 -42.976872 -7.901863 0.000000 0.000000 0.000000 -3.645381 0.284478 0.016252 -3.654293 -18.193049 -38.414405 4.607960 2.461547 3.112352 -100.733727 11.774648 44.003869 -33.020488 55.799391 2.458790 0.000000 0.000000 0.000000 
-2.339437 35.793488 78.763138 0.000000 0.000000 0.000000 17.373795 8.313311 -0.066262 -11.670334 10.113794 15.311652 50.110718 12.035253 -0.133120 8.163491 0.571754 -0.720075 7.722410 1.990294 -7.802604 0.000000 0.000000 0.000000 16.899189 13.437963 -0.597589 -60.202626 -17.541971 -10.872129 41.764834 0.762061 -12.667006 40.494382 1.775666 -1.914798 4.416462 -0.272365 1.201553 0.000000 0.000000 0.000000 16.344971 6.800611 1.194926 1.338740 -0.457400 1.104474 -3.829488 -0.786253 0.450608 0.807123 -0.730492 0.208979 0.000000 0.000000 0.000000 -1.741947 -0.383573 -0.826620 -8.362643 0.380586 -7.013531 -27.327780 6.345456 3.260301 0.000000 0.000000 0.000000 -5.042435 -0.157742 0.055734 10.441876 -4.425597 32.160837 4.460915 7.056039 -1.015864 -48.276904 -13.561875 14.803581 -40.922839 -40.685972 -6.935580 0.000000 0.000000 0.000000 -3.771697 0.071230 0.190860 -4.501301 -18.831299 -40.531900 4.452363 1.962923 3.548329 -97.434288 13.921502 39.440675 -30.239860 51.640239 -4.107945 0.000000 0.000000 0.000000 
-2.540730 34.576511 82.151070 0.000000 0.000000 0.000000 13.161943 9.791791 -0.292403 -12.112085 11.421601 15.833985 49.320065 11.514177 -0.906425 1.998943 0.576366 -0.087002 6.784438 2.163951 -9.962040 0.000000 0.000000 0.000000 13.143058 15.469315 -0.849659 -60.048291 -19.578573 -11.454786 42.298416 1.759715 -11.681033 37.376503 -0.319960 -3.832945 1.485691 -0.982534 2.192685 0.000000 0.000000 0.000000 12.268522 8.959764 0.509326 2.341883 -0.783275 0.827600 -3.579958 -1.465929 0.742450 1.111056 -0.035435 0.215975 0.000000 0.000000 0.000000 -1.942594 -0.897182 -0.851441 -5.853785 0.470577 -6.147820 -27.321324 5.087345 4.455593 0.000000 0.000000 0.000000 -5.209623 -0.680493 -0.048004 10.529911 -4.034016 33.415136 4.139016 6.852907 -1.384640 -45.341606 -9.086017 16.692463 -41.366945 -39.093930 -6.061029 0.000000 0.000000 0.000000 -3.860310 -0.360634 0.384655 -4.599746 -19.035597 -41.417208 4.088445 1.260457 3.541836 -92.134300 15.447835 34.627212 -30.205876 49.587406 -6.789083 0.000000 0.000000 0.000000 
-2.801946 33.890141 85.341393 0.000000 0.000000 0.000000 9.194072 11.215644 -0.638792 -13.293980 13.734014 14.967070 46.292720 10.557380 -0.504884 -5.265368 -0.299559 1.141891 4.520757 2.308852 -10.232675 0.000000 0.000000 0.000000 9.382290 17.750806 -1.106783 -56.963402 -22.769561 -11.786472 39.711635 2.533199 -10.450663 33.841128 -1.943709 -5.670803 0.962665 -1.407477 2.983431 0.000000 0.000000 0.000000 7.966296 10.891507 -0.181748 3.072071 -0.984291 0.808368 -3.309854 -2.166824 0.976044 1.258213 -0.006263 0.161764 0.000000 0.000000 0.000000 -2.137469 -1.500863 -0.813955 -2.875348 0.644000 -4.995262 -25.642963 3.940366 5.722147 0.000000 0.000000 0.000000 -5.247164 -1.303782 -0.151983 10.706863 -3.417640 34.699485 4.003704 6.278371 -1.667566 -42.585444 -4.623975 17.510126 -41.820787 -38.630648 -5.828942 0.000000 0.000000 0.000000 -3.966869 -0.941564 0.567229 -4.025290 -18.915606 -41.052640 3.890332 0.647646 3.177813 -85.906390 15.786189 30.007982 -32.175928 51.488968 -5.810150 0.000000 0.000000 0.000000 
-3.054691 33.740707 88.430359 0.000000 0.000000 0.000000 5.862322 12.618744 -0.929782 -14.592400 16.470084 12.985408 40.928426 8.409596 0.874829 -10.498709 -1.907319 0.887114 0.880846 2.382507 -8.507905 0.000000 0.000000 0.000000 5.860281 19.836352 -1.180639 -51.607048 -26.368275 -11.436774 34.186412 3.115477 -9.231677 30.030689 -2.737191 -7.357817 2.255636 -1.190294 3.247902 0.000000 0.000000 0.000000 4.073591 12.438938 -0.717539 3.269919 -1.072404 0.934980 -3.190274 -2.782490 1.069251 1.416367 0.038035 -0.154052 0.000000 0.000000 0.000000 -2.350183 -2.096538 -0.779388 0.622868 0.966019 -3.766031 -22.455686 2.995041 6.995958 0.000000 0.000000 0.000000 -5.294431 -1.934163 -0.261089 10.873932 -2.526532 36.123877 3.828158 5.533243 -1.713214 -40.908318 -1.073966 17.599403 -42.507942 -39.085440 -6.429097 0.000000 0.000000 0.000000 -4.129241 -1.574709 0.666495 -2.849266 -18.459925 -39.717700 3.721387 -0.119274 2.445916 -80.098940 15.237141 26.209179 -35.681591 55.500017 -1.669922 0.000000 0.000000 0.000000 
-3.236282 34.051598 91.399147 0.000000 0.000000 0.000000 3.199204 13.863566 -1.104085 -15.885883 19.051372 10.472645 34.438490 5.172118 2.584819 -11.265499 -3.653028 -1.012435 -3.192913 2.233161 -5.526362 0.000000 0.000000 0.000000 2.672047 21.125650 -1.045018 -45.119680 -29.565396 -10.407121 26.808704 3.533324 -8.274550 26.548534 -2.657805 -8.240295 3.780717 -0.501219 2.837395 0.000000 0.000000 0.000000 0.938475 13.526836 -1.090418 2.849111 -1.096225 1.057901 -3.312018 -3.256112 0.969323 1.148775 0.174931 -0.575868 0.000000 0.000000 0.000000 -2.736441 -2.585135 -0.815054 4.464237 1.420380 -2.669478 -18.193466 2.258835 8.228222 0.000000 0.000000 0.000000 -5.485339 -2.465012 -0.413484 10.978361 -1.420919 37.719402 3.728556 4.923191 -1.296363 -40.675798 0.725129 17.399010 -43.274415 -39.520240 -7.594100 0.000000 0.000000 0.000000 -4.444011 -2.135161 0.607484 -1.305281 -17.669862 -37.959446 3.714895 -0.624667 1.475484 -75.966621 14.781195 23.122953 -39.599852 57.731587 3.874549 0.000000 0.000000 0.000000 
-3.277010 34.608597 94.309334 0.000000 0.000000 0.000000 1.208248 14.869564 -1.216615 -17.243735 21.322647 7.855261 28.787707 1.975163 4.078161 -7.913093 -4.907867 -2.688154 -5.358735 1.820739 -2.909284 0.000000 0.000000 0.000000 0.281736 21.858455 -0.880356 -38.350406 -31.740852 -8.931579 19.689298 3.929804 -7.664463 23.303769 -2.024851 -8.356606 4.287989 0.277555 1.891379 0.000000 0.000000 0.000000 -1.503364 14.013692 -1.302780 1.942487 -1.118757 1.054971 -3.648189 -3.584067 0.702366 0.989228 0.181455 -0.908492 0.000000 0.000000 0.000000 -3.356798 -2.953671 -0.938681 8.207097 1.841609 -1.850374 -13.429790 1.512962 9.396694 0.000000 0.000000 0.000000 -5.843020 -2.864181 -0.596593 11.002220 -0.161200 39.521250 3.624877 4.449423 -0.691687 -41.449266 0.437080 17.112954 -43.670194 -38.887371 -8.695030 0.000000 0.000000 0.000000 -4.927215 -2.567003 0.395889 0.289825 -16.565075 -36.464355 3.878651 -0.859934 0.528452 -73.973401 15.294972 20.827149 -41.313335 55.803510 7.545341 0.000000 0.000000 0.000000 
